<svg xmlns="http://www.w3.org/2000/svg" width="3.6875rem" fill="none" preserveAspectRatio="xMidYMid meet" viewBox="0 0 50 49"><path fill="#FFF" d="M46.149 0H18.235c-2.1.064-3.762 2.542-3.762 5.592s1.662 5.465 3.719 5.592h27.957c2.1 0 3.85-2.478 3.85-5.592C49.955 2.478 48.249 0 46.149 0zM5.59 11.176A5.589 5.589 0 100 5.588a5.589 5.589 0 005.59 5.588zM46.149 18.42H18.235c-2.1.064-3.762 2.543-3.762 5.593s1.662 5.465 3.719 5.592h27.957c2.1 0 3.85-2.478 3.85-5.592-.044-3.114-1.75-5.592-3.85-5.592zM5.59 29.718A5.589 5.589 0 100 24.13a5.589 5.589 0 005.59 5.588zM45.773 36.842H4.131C1.825 36.906 0 39.384 0 42.434s1.825 5.465 4.083 5.592h41.69c2.306 0 4.227-2.478 4.227-5.592-.048-3.114-1.921-5.592-4.227-5.592z"></path></svg>