<svg xmlns="http://www.w3.org/2000/svg" width="59" height="64" fill="none" viewBox="0 0 59 64"><path fill="#FFF" d="M54.42 22.173l-4.986-7.48c-.44-.66-1.247-.953-2.054-.733-.733.22-1.32.953-1.32 1.76 0 3.593-.513 7.187-1.54 10.633-.88-2.493-2.566-4.766-4.84-6.233-4.033-2.713-5.133-7.993-2.42-12.1l3.154-4.767c.366-.513.366-1.246.073-1.833C40.12.833 39.534.467 38.8.467c-3.226 0-6.233.586-9.093 1.76-8.58 3.446-14.813 11.44-15.4 21.12-.587-1.54-.88-3.227-.88-4.987v-7.187c0-.806-.513-1.54-1.32-1.76-.733-.22-1.613.074-2.053.734l-2.42 3.666C3.014 20.707.667 28.553.667 36.767.667 51.213 12.4 63.02 26.92 63.02h5.72c14.447 0 26.254-11.733 26.254-26.253 0-5.207-1.54-10.267-4.474-14.594z"></path></svg>