<svg xmlns="http://www.w3.org/2000/svg" width="2.375rem" fill="white" preserveAspectRatio="xMidYMid meet" viewBox="0 0 44 58"><path d="M43.531 25.702c0-11.395-6.77-21.161-16.453-25.702v51.318c9.684-4.456 16.453-14.222 16.453-25.616zM6.684 28.786a6.683 6.683 0 100-13.365 6.683 6.683 0 100 13.365zM8.398 51.403c0-.942-.772-1.713-1.628-1.713.856 0 1.628.77 1.628 1.713z"></path><path d="M7.027 36.41H5.999C2.657 36.754 0 39.58 0 43.008c0 3.085 2.142 5.655 4.97 6.426.086 0 .172.086.257.086.086 0 .172 0 .257.085h1.029c.942 0 1.628.771 1.628 1.628 0 .942-.771 1.713-1.628 1.713-.172 0-.343 0-.514.086-.086 0-.172 0-.257.086-1.029.342-1.8 1.285-1.8 2.399A2.487 2.487 0 006.427 58c5.999 0 10.883-4.883 10.883-10.88.257-5.74-4.456-10.538-10.283-10.71z"></path></svg>