<svg xmlns="http://www.w3.org/2000/svg" width="3.5rem" fill="white" preserveAspectRatio="xMidYMid meet" viewBox="0 0 40 40"><path d="M32.143 29.506c0-2.458-2.015-4.506-4.548-4.506-1.24 0-2.325.46-3.152 1.229-2.17 2.048-5.116 3.277-8.372 3.277-3.255 0-6.2-1.229-8.371-3.277A4.567 4.567 0 004.548 25C2.068 25 0 26.997 0 29.506c0 1.126.413 2.202 1.137 2.97 3.617 4.147 8.94 6.81 14.934 6.81 5.943 0 11.318-2.663 14.935-6.81.723-.768 1.137-1.844 1.137-2.97zM39.778 14.254c0-.052 0-.104.052-.156.104-.575.26-1.723.104-3.185 0-.157-.052-.314-.052-.522v-.105C38.942 4.49 33.932 0 27.877 0c-6.63 0-12.006 5.274-12.162 11.8v.418c0 .783.052 1.358.156 1.775 0 .105.053.261.053.366.052.156.052.209.052.209.574 1.88 2.296 3.29 4.384 3.29 2.506 0 4.594-2.037 4.594-4.596 0-.26-.053-.783-.053-.783v-.365a3.03 3.03 0 013.028-3.029 3.03 3.03 0 013.027 3.029v.208s-.052.627-.052.94c0 2.507 2.036 4.595 4.594 4.595 2.087 0 3.862-1.41 4.384-3.29 0 0-.157-.156-.104-.313z"></path></svg>