<svg xmlns="http://www.w3.org/2000/svg" width="2.5rem" fill="white" preserveAspectRatio="xMidYMid meet" viewBox="0 0 51 50"><path d="M50.79 10.749c0-.208.072-.486.072-.694 0-.208 0-.485-.072-.693v-.139C50.358 4.161 46.035.14 40.776 0H17.074c-3.458 0-6.34 2.705-6.34 6.103 0 3.328 2.81 6.102 6.34 6.102h13.112L12.68 30.097V16.02h-.072c-.36-3.05-3.026-5.409-6.268-5.409S.432 12.968.072 16.02c0 .207-.072.416-.072.624 0 .208 0 .416.072.624V39.25c0 .208-.072.486-.072.694 0 .208 0 .485.072.693v.139C.504 45.839 4.827 49.86 10.086 50h23.702c3.458 0 6.34-2.705 6.34-6.103 0-3.328-2.81-6.102-6.34-6.102H20.604l17.579-17.892V33.98c.36 3.05 3.025 5.409 6.267 5.409 3.242 0 5.908-2.358 6.268-5.41 0-.207.072-.415.072-.624 0-.208 0-.416-.072-.624V10.75h.072z"></path></svg>