<svg xmlns="http://www.w3.org/2000/svg" width="3.5rem" fill="white" preserveAspectRatio="xMidYMid meet" viewBox="0 0 56 62"><path d="M55.696 53.44L53.75 42.25c-.243-2.69-2.553-4.83-5.29-4.83-2.25 0-4.195 1.468-4.986 3.485l-.79 1.468a37.852 37.852 0 002.25-12.902c0-11.067-4.804-20.972-12.404-27.82l.06.061C31.619.672 30.22 0 28.7 0c-1.4 0-2.676.55-3.649 1.467-8.634 6.849-14.167 17.427-14.167 29.35 0 3.301.425 6.48 1.216 9.538a5.34 5.34 0 00-4.743-2.935c-2.736 0-5.046 2.14-5.29 4.83L.122 53.44C.06 53.807 0 54.235 0 54.602c0 2.934 2.371 5.38 5.35 5.38 2.25 0 4.196-1.467 4.987-3.485v.122c0 2.935 2.37 5.381 5.35 5.381H40.8c2.736-.245 4.864-2.568 4.864-5.32v-.122c.79 2.018 2.676 3.485 4.986 3.485 2.919 0 5.351-2.384 5.351-5.38-.182-.428-.243-.795-.304-1.223zM25.294 9.538c.061.062.183.123.244.184-.061-.061-.183-.122-.244-.184z"></path></svg>