<svg xmlns="http://www.w3.org/2000/svg" width="2.5rem" fill="white" preserveAspectRatio="xMidYMid meet" viewBox="0 0 40 38"><path d="M39.739 14.082c-.631-1.916-2.313-3.314-4.363-3.624l-7.307-1.036-3.206-6.471C23.969 1.139 22.077 0 20.027 0c-2.05 0-3.943 1.139-4.836 2.951l-3.26 6.523-7.306 1.035c-2.05.311-3.732 1.657-4.363 3.624A5.242 5.242 0 001.63 19.57l5.257 5.073-1.262 7.145c-.368 2.018.473 3.986 2.155 5.177a5.473 5.473 0 005.677.414l6.518-3.365 6.518 3.365c.789.414 1.63.621 2.523.621 1.104 0 2.208-.362 3.154-1.035 1.682-1.191 2.47-3.21 2.156-5.178l-1.262-7.144 5.256-5.073c1.525-1.45 2.05-3.521 1.42-5.488z"></path></svg>