<?xml version="1.0" encoding="UTF-8"?>
<svg xmlns="http://www.w3.org/2000/svg" xmlns:xlink="http://www.w3.org/1999/xlink" width="23px" height="16px" viewBox="0 0 22 16" version="1.1">
<g id="surface1">
<path style=" stroke:none;fill-rule:evenodd;fill:rgb(100%,100%,100%);fill-opacity:1;" d="M 9.480469 10.242188 L 9.515625 10.390625 L 9.390625 10.308594 L 9.261719 10.390625 L 9.300781 10.242188 L 9.1875 10.144531 L 9.335938 10.132812 L 9.390625 9.988281 L 9.445312 10.132812 L 9.59375 10.144531 Z M 9.480469 10.242188 "/>
<path style=" stroke:none;fill-rule:evenodd;fill:rgb(100%,100%,100%);fill-opacity:1;" d="M 8.277344 9.035156 L 8.316406 9.1875 L 8.1875 9.105469 L 8.0625 9.1875 L 8.101562 9.035156 L 7.984375 8.9375 L 8.132812 8.925781 L 8.1875 8.785156 L 8.242188 8.925781 L 8.394531 8.9375 Z M 8.277344 9.035156 "/>
<path style=" stroke:none;fill-rule:evenodd;fill:rgb(100%,100%,100%);fill-opacity:1;" d="M 7.960938 7.378906 L 8 7.527344 L 7.871094 7.445312 L 7.746094 7.527344 L 7.78125 7.378906 L 7.667969 7.277344 L 7.816406 7.269531 L 7.871094 7.125 L 7.925781 7.269531 L 8.078125 7.277344 Z M 7.960938 7.378906 "/>
<path style=" stroke:none;fill-rule:evenodd;fill:rgb(0%,61.176471%,21.568627%);fill-opacity:1;" d="M 22.011719 0 L 22.011719 15.984375 L 0 15.984375 L 0 0 Z M 22.011719 0 "/>
<path style=" stroke:none;fill-rule:nonzero;fill:rgb(99.607843%,87.843137%,0%);fill-opacity:1;" d="M 20.140625 7.992188 L 11.003906 14.046875 L 1.871094 7.992188 L 11.003906 1.941406 Z M 20.140625 7.992188 "/>
<path style=" stroke:none;fill-rule:nonzero;fill:rgb(0%,13.333333%,46.666667%);fill-opacity:1;" d="M 11.003906 3.996094 C 13.132812 3.996094 14.855469 5.785156 14.855469 7.992188 C 14.855469 10.199219 13.132812 11.988281 11.003906 11.988281 C 8.878906 11.988281 7.152344 10.199219 7.152344 7.992188 C 7.152344 5.785156 8.878906 3.996094 11.003906 3.996094 Z M 11.003906 3.996094 "/>
<path style=" stroke:none;fill-rule:evenodd;fill:rgb(100%,100%,100%);fill-opacity:1;" d="M 12.273438 6.636719 L 12.308594 6.785156 L 12.183594 6.703125 L 12.054688 6.785156 L 12.09375 6.636719 L 11.976562 6.539062 L 12.128906 6.527344 L 12.183594 6.382812 L 12.238281 6.527344 L 12.386719 6.539062 Z M 12.273438 6.636719 "/>
<path style=" stroke:none;fill-rule:evenodd;fill:rgb(100%,100%,100%);fill-opacity:1;" d="M 11.972656 7.777344 L 12 7.886719 L 11.90625 7.828125 L 11.816406 7.886719 L 11.84375 7.777344 L 11.761719 7.707031 L 11.867188 7.699219 L 11.90625 7.597656 L 11.949219 7.699219 L 12.054688 7.707031 Z M 11.972656 7.777344 "/>
<path style=" stroke:none;fill-rule:evenodd;fill:rgb(100%,100%,100%);fill-opacity:1;" d="M 7.960938 7.378906 L 8 7.527344 L 7.871094 7.445312 L 7.746094 7.527344 L 7.785156 7.378906 L 7.667969 7.277344 L 7.816406 7.269531 L 7.871094 7.125 L 7.925781 7.269531 L 8.078125 7.277344 Z M 7.960938 7.378906 "/>
<path style=" stroke:none;fill-rule:evenodd;fill:rgb(100%,100%,100%);fill-opacity:1;" d="M 9.578125 8.1875 L 9.609375 8.316406 L 9.503906 8.246094 L 9.394531 8.316406 L 9.425781 8.1875 L 9.328125 8.105469 L 9.457031 8.097656 L 9.503906 7.976562 L 9.546875 8.097656 L 9.675781 8.105469 Z M 9.578125 8.1875 "/>
<path style=" stroke:none;fill-rule:evenodd;fill:rgb(100%,100%,100%);fill-opacity:1;" d="M 8.589844 8.757812 L 8.609375 8.839844 L 8.542969 8.796875 L 8.472656 8.839844 L 8.492188 8.757812 L 8.433594 8.707031 L 8.511719 8.699219 L 8.542969 8.621094 L 8.570312 8.699219 L 8.652344 8.707031 Z M 8.589844 8.757812 "/>
<path style=" stroke:none;fill-rule:evenodd;fill:rgb(100%,100%,100%);fill-opacity:1;" d="M 8.277344 9.035156 L 8.316406 9.1875 L 8.1875 9.105469 L 8.0625 9.1875 L 8.101562 9.035156 L 7.984375 8.9375 L 8.132812 8.925781 L 8.1875 8.785156 L 8.242188 8.925781 L 8.394531 8.9375 Z M 8.277344 9.035156 "/>
<path style=" stroke:none;fill-rule:evenodd;fill:rgb(100%,100%,100%);fill-opacity:1;" d="M 7.859375 9.375 L 7.890625 9.503906 L 7.785156 9.433594 L 7.679688 9.503906 L 7.710938 9.375 L 7.613281 9.292969 L 7.738281 9.285156 L 7.785156 9.164062 L 7.832031 9.285156 L 7.957031 9.292969 Z M 7.859375 9.375 "/>
<path style=" stroke:none;fill-rule:evenodd;fill:rgb(100%,100%,100%);fill-opacity:1;" d="M 9.042969 9.40625 L 9.074219 9.535156 L 8.96875 9.464844 L 8.863281 9.535156 L 8.890625 9.40625 L 8.796875 9.324219 L 8.921875 9.316406 L 8.96875 9.195312 L 9.015625 9.316406 L 9.140625 9.324219 Z M 9.042969 9.40625 "/>
<path style=" stroke:none;fill-rule:evenodd;fill:rgb(100%,100%,100%);fill-opacity:1;" d="M 8.894531 9.824219 L 8.917969 9.933594 L 8.828125 9.871094 L 8.738281 9.933594 L 8.765625 9.824219 L 8.679688 9.753906 L 8.789062 9.746094 L 8.828125 9.640625 L 8.867188 9.746094 L 8.976562 9.753906 Z M 8.894531 9.824219 "/>
<path style=" stroke:none;fill-rule:evenodd;fill:rgb(100%,100%,100%);fill-opacity:1;" d="M 9.480469 10.242188 L 9.515625 10.390625 L 9.390625 10.308594 L 9.261719 10.390625 L 9.300781 10.242188 L 9.1875 10.144531 L 9.335938 10.132812 L 9.390625 9.988281 L 9.445312 10.132812 L 9.59375 10.144531 Z M 9.480469 10.242188 "/>
<path style=" stroke:none;fill-rule:evenodd;fill:rgb(100%,100%,100%);fill-opacity:1;" d="M 11.058594 11.183594 L 11.074219 11.242188 L 11.023438 11.207031 L 10.976562 11.242188 L 10.988281 11.183594 L 10.945312 11.144531 L 11.003906 11.140625 L 11.023438 11.085938 L 11.046875 11.140625 L 11.101562 11.144531 Z M 11.058594 11.183594 "/>
<path style=" stroke:none;fill-rule:evenodd;fill:rgb(100%,100%,100%);fill-opacity:1;" d="M 11.109375 8.726562 L 11.140625 8.851562 L 11.035156 8.78125 L 10.929688 8.851562 L 10.957031 8.726562 L 10.863281 8.640625 L 10.988281 8.632812 L 11.035156 8.511719 L 11.082031 8.632812 L 11.207031 8.640625 Z M 11.109375 8.726562 "/>
<path style=" stroke:none;fill-rule:evenodd;fill:rgb(100%,100%,100%);fill-opacity:1;" d="M 11.460938 9.066406 L 11.492188 9.195312 L 11.386719 9.125 L 11.28125 9.195312 L 11.3125 9.066406 L 11.214844 8.984375 L 11.339844 8.976562 L 11.386719 8.855469 L 11.433594 8.976562 L 11.558594 8.984375 Z M 11.460938 9.066406 "/>
<path style=" stroke:none;fill-rule:evenodd;fill:rgb(100%,100%,100%);fill-opacity:1;" d="M 10.828125 9.316406 L 10.847656 9.394531 L 10.78125 9.351562 L 10.714844 9.394531 L 10.734375 9.316406 L 10.671875 9.261719 L 10.753906 9.257812 L 10.78125 9.179688 L 10.8125 9.257812 L 10.890625 9.261719 Z M 10.828125 9.316406 "/>
<path style=" stroke:none;fill-rule:evenodd;fill:rgb(100%,100%,100%);fill-opacity:1;" d="M 10.566406 9.109375 L 10.589844 9.21875 L 10.5 9.15625 L 10.410156 9.21875 L 10.4375 9.109375 L 10.355469 9.039062 L 10.460938 9.03125 L 10.5 8.925781 L 10.539062 9.03125 L 10.648438 9.039062 Z M 10.566406 9.109375 "/>
<path style=" stroke:none;fill-rule:evenodd;fill:rgb(100%,100%,100%);fill-opacity:1;" d="M 11.101562 9.894531 L 11.136719 10.046875 L 11.011719 9.964844 L 10.886719 10.046875 L 10.921875 9.894531 L 10.808594 9.796875 L 10.957031 9.785156 L 11.011719 9.644531 L 11.066406 9.785156 L 11.214844 9.796875 Z M 11.101562 9.894531 "/>
<path style=" stroke:none;fill-rule:evenodd;fill:rgb(100%,100%,100%);fill-opacity:1;" d="M 11.871094 10.292969 L 11.898438 10.402344 L 11.804688 10.339844 L 11.714844 10.402344 L 11.742188 10.292969 L 11.660156 10.222656 L 11.765625 10.214844 L 11.804688 10.113281 L 11.84375 10.214844 L 11.953125 10.222656 Z M 11.871094 10.292969 "/>
<path style=" stroke:none;fill-rule:evenodd;fill:rgb(100%,100%,100%);fill-opacity:1;" d="M 12.195312 10.789062 L 12.226562 10.917969 L 12.121094 10.847656 L 12.015625 10.917969 L 12.046875 10.789062 L 11.949219 10.707031 L 12.074219 10.699219 L 12.121094 10.578125 L 12.167969 10.699219 L 12.292969 10.707031 Z M 12.195312 10.789062 "/>
<path style=" stroke:none;fill-rule:evenodd;fill:rgb(100%,100%,100%);fill-opacity:1;" d="M 12.539062 10.394531 L 12.5625 10.5 L 12.472656 10.441406 L 12.382812 10.5 L 12.410156 10.394531 L 12.328125 10.324219 L 12.433594 10.316406 L 12.472656 10.210938 L 12.511719 10.316406 L 12.621094 10.324219 Z M 12.539062 10.394531 "/>
<path style=" stroke:none;fill-rule:evenodd;fill:rgb(100%,100%,100%);fill-opacity:1;" d="M 12.996094 11.109375 L 13.023438 11.21875 L 12.933594 11.15625 L 12.84375 11.21875 L 12.867188 11.109375 L 12.785156 11.039062 L 12.894531 11.03125 L 12.933594 10.925781 L 12.972656 11.03125 L 13.078125 11.039062 Z M 12.996094 11.109375 "/>
<path style=" stroke:none;fill-rule:evenodd;fill:rgb(100%,100%,100%);fill-opacity:1;" d="M 13.011719 10.695312 L 13.042969 10.820312 L 12.9375 10.75 L 12.832031 10.820312 L 12.863281 10.695312 L 12.765625 10.609375 L 12.890625 10.601562 L 12.9375 10.480469 L 12.984375 10.601562 L 13.109375 10.609375 Z M 13.011719 10.695312 "/>
<path style=" stroke:none;fill-rule:evenodd;fill:rgb(100%,100%,100%);fill-opacity:1;" d="M 12.992188 10.300781 L 13.015625 10.410156 L 12.925781 10.347656 L 12.835938 10.410156 L 12.863281 10.300781 L 12.78125 10.230469 L 12.886719 10.222656 L 12.925781 10.121094 L 12.964844 10.222656 L 13.074219 10.230469 Z M 12.992188 10.300781 "/>
<path style=" stroke:none;fill-rule:evenodd;fill:rgb(100%,100%,100%);fill-opacity:1;" d="M 13.371094 10.304688 L 13.398438 10.414062 L 13.308594 10.351562 L 13.214844 10.414062 L 13.242188 10.304688 L 13.160156 10.234375 L 13.265625 10.226562 L 13.308594 10.125 L 13.347656 10.226562 L 13.453125 10.234375 Z M 13.371094 10.304688 "/>
<path style=" stroke:none;fill-rule:evenodd;fill:rgb(100%,100%,100%);fill-opacity:1;" d="M 13.742188 10.140625 L 13.773438 10.265625 L 13.667969 10.195312 L 13.558594 10.265625 L 13.589844 10.140625 L 13.496094 10.054688 L 13.621094 10.046875 L 13.667969 9.925781 L 13.714844 10.046875 L 13.839844 10.054688 Z M 13.742188 10.140625 "/>
<path style=" stroke:none;fill-rule:evenodd;fill:rgb(100%,100%,100%);fill-opacity:1;" d="M 13.925781 9.824219 L 13.957031 9.949219 L 13.847656 9.878906 L 13.742188 9.949219 L 13.773438 9.824219 L 13.675781 9.738281 L 13.800781 9.730469 L 13.847656 9.609375 L 13.894531 9.730469 L 14.019531 9.738281 Z M 13.925781 9.824219 "/>
<path style=" stroke:none;fill-rule:evenodd;fill:rgb(100%,100%,100%);fill-opacity:1;" d="M 13.785156 9.433594 L 13.824219 9.585938 L 13.695312 9.503906 L 13.570312 9.585938 L 13.605469 9.433594 L 13.492188 9.335938 L 13.640625 9.324219 L 13.695312 9.183594 L 13.75 9.324219 L 13.902344 9.335938 Z M 13.785156 9.433594 "/>
<path style=" stroke:none;fill-rule:evenodd;fill:rgb(100%,100%,100%);fill-opacity:1;" d="M 14.324219 9.460938 L 14.351562 9.570312 L 14.261719 9.507812 L 14.167969 9.570312 L 14.195312 9.460938 L 14.113281 9.390625 L 14.21875 9.382812 L 14.261719 9.277344 L 14.300781 9.382812 L 14.40625 9.390625 Z M 14.324219 9.460938 "/>
<path style=" stroke:none;fill-rule:evenodd;fill:rgb(100%,100%,100%);fill-opacity:1;" d="M 8.703125 6.761719 C 8.230469 6.761719 7.765625 6.796875 7.308594 6.871094 C 7.363281 6.671875 7.433594 6.480469 7.519531 6.296875 C 7.90625 6.25 8.304688 6.222656 8.703125 6.222656 C 11.019531 6.222656 13.152344 7.066406 14.824219 8.476562 C 14.800781 8.679688 14.761719 8.878906 14.707031 9.074219 C 13.09375 7.632812 10.992188 6.761719 8.703125 6.761719 Z M 8.703125 6.761719 "/>
<path style=" stroke:none;fill-rule:evenodd;fill:rgb(0%,61.176471%,21.568627%);fill-opacity:1;" d="M 7.714844 6.554688 C 7.714844 6.59375 7.726562 6.621094 7.746094 6.644531 C 7.765625 6.664062 7.789062 6.671875 7.820312 6.667969 C 7.847656 6.667969 7.871094 6.652344 7.886719 6.628906 C 7.902344 6.605469 7.90625 6.574219 7.90625 6.535156 C 7.902344 6.496094 7.890625 6.46875 7.871094 6.449219 C 7.851562 6.429688 7.828125 6.417969 7.796875 6.421875 C 7.769531 6.425781 7.746094 6.4375 7.730469 6.460938 C 7.714844 6.484375 7.710938 6.515625 7.714844 6.554688 Z M 7.640625 6.558594 C 7.636719 6.503906 7.648438 6.457031 7.675781 6.417969 C 7.703125 6.382812 7.742188 6.363281 7.792969 6.359375 C 7.84375 6.355469 7.886719 6.367188 7.917969 6.398438 C 7.953125 6.429688 7.972656 6.472656 7.976562 6.53125 C 7.980469 6.585938 7.96875 6.632812 7.941406 6.671875 C 7.914062 6.707031 7.875 6.726562 7.824219 6.730469 C 7.773438 6.738281 7.730469 6.722656 7.699219 6.691406 C 7.664062 6.660156 7.644531 6.617188 7.640625 6.558594 Z M 8.199219 6.492188 L 8.28125 6.492188 C 8.300781 6.492188 8.3125 6.484375 8.320312 6.476562 C 8.332031 6.46875 8.335938 6.457031 8.332031 6.441406 C 8.332031 6.425781 8.328125 6.414062 8.320312 6.40625 C 8.3125 6.398438 8.300781 6.394531 8.28125 6.398438 L 8.195312 6.398438 Z M 8.136719 6.695312 L 8.125 6.339844 L 8.289062 6.335938 C 8.328125 6.332031 8.355469 6.339844 8.375 6.355469 C 8.394531 6.371094 8.402344 6.398438 8.402344 6.433594 C 8.40625 6.453125 8.402344 6.472656 8.390625 6.488281 C 8.382812 6.5 8.371094 6.511719 8.355469 6.519531 C 8.371094 6.523438 8.382812 6.53125 8.386719 6.542969 C 8.394531 6.554688 8.398438 6.570312 8.402344 6.59375 L 8.402344 6.636719 C 8.40625 6.660156 8.410156 6.671875 8.417969 6.675781 L 8.417969 6.6875 L 8.339844 6.691406 C 8.339844 6.683594 8.335938 6.679688 8.335938 6.671875 C 8.332031 6.664062 8.332031 6.65625 8.332031 6.644531 L 8.328125 6.609375 C 8.328125 6.585938 8.324219 6.570312 8.316406 6.5625 C 8.308594 6.554688 8.296875 6.550781 8.277344 6.554688 L 8.203125 6.554688 L 8.207031 6.695312 Z M 8.640625 6.617188 L 8.699219 6.617188 C 8.730469 6.617188 8.753906 6.609375 8.769531 6.59375 C 8.785156 6.574219 8.792969 6.546875 8.792969 6.507812 C 8.792969 6.464844 8.789062 6.4375 8.773438 6.417969 C 8.761719 6.398438 8.742188 6.390625 8.710938 6.390625 L 8.644531 6.386719 Z M 8.570312 6.679688 L 8.578125 6.324219 L 8.710938 6.328125 C 8.765625 6.328125 8.804688 6.34375 8.828125 6.371094 C 8.855469 6.402344 8.867188 6.449219 8.867188 6.507812 C 8.863281 6.539062 8.859375 6.570312 8.851562 6.59375 C 8.839844 6.617188 8.824219 6.636719 8.808594 6.652344 C 8.792969 6.664062 8.777344 6.671875 8.761719 6.675781 C 8.742188 6.679688 8.71875 6.683594 8.6875 6.683594 Z M 9.007812 6.6875 L 9.027344 6.332031 L 9.273438 6.347656 L 9.269531 6.40625 L 9.089844 6.398438 L 9.085938 6.472656 L 9.25 6.484375 L 9.25 6.542969 L 9.085938 6.535156 L 9.078125 6.625 L 9.265625 6.636719 L 9.265625 6.703125 Z M 9.410156 6.710938 L 9.445312 6.359375 L 9.550781 6.371094 L 9.589844 6.648438 L 9.6875 6.386719 L 9.789062 6.394531 L 9.753906 6.75 L 9.6875 6.742188 L 9.71875 6.457031 L 9.617188 6.734375 L 9.546875 6.726562 L 9.503906 6.433594 L 9.476562 6.71875 Z M 10.320312 6.832031 L 10.390625 6.484375 L 10.636719 6.539062 L 10.621094 6.601562 L 10.449219 6.5625 L 10.433594 6.636719 L 10.59375 6.671875 L 10.582031 6.730469 L 10.417969 6.695312 L 10.402344 6.785156 L 10.585938 6.824219 L 10.570312 6.890625 Z M 11.226562 6.855469 L 11.292969 6.875 C 11.3125 6.878906 11.324219 6.878906 11.335938 6.875 C 11.347656 6.867188 11.351562 6.855469 11.359375 6.839844 C 11.363281 6.824219 11.359375 6.808594 11.355469 6.796875 C 11.347656 6.789062 11.339844 6.78125 11.324219 6.777344 L 11.253906 6.757812 Z M 11.210938 6.917969 L 11.179688 7.039062 L 11.109375 7.019531 L 11.199219 6.675781 L 11.347656 6.71875 C 11.382812 6.726562 11.40625 6.746094 11.417969 6.769531 C 11.433594 6.792969 11.433594 6.824219 11.425781 6.859375 C 11.414062 6.894531 11.398438 6.917969 11.378906 6.933594 C 11.355469 6.949219 11.328125 6.949219 11.296875 6.941406 Z M 11.625 6.972656 L 11.703125 7 C 11.71875 7.003906 11.734375 7.003906 11.746094 7 C 11.753906 6.996094 11.761719 6.984375 11.765625 6.96875 C 11.769531 6.957031 11.769531 6.941406 11.765625 6.933594 C 11.757812 6.921875 11.75 6.914062 11.734375 6.910156 L 11.652344 6.882812 Z M 11.5 7.144531 L 11.601562 6.804688 L 11.757812 6.855469 C 11.796875 6.867188 11.820312 6.882812 11.832031 6.902344 C 11.84375 6.925781 11.84375 6.953125 11.835938 6.984375 C 11.828125 7.003906 11.820312 7.019531 11.808594 7.03125 C 11.796875 7.042969 11.78125 7.050781 11.761719 7.050781 C 11.777344 7.058594 11.785156 7.070312 11.785156 7.082031 C 11.789062 7.097656 11.789062 7.113281 11.78125 7.136719 L 11.773438 7.175781 C 11.769531 7.175781 11.769531 7.179688 11.769531 7.179688 C 11.765625 7.199219 11.765625 7.210938 11.773438 7.21875 L 11.769531 7.230469 L 11.695312 7.207031 C 11.695312 7.199219 11.695312 7.195312 11.695312 7.1875 C 11.695312 7.179688 11.699219 7.171875 11.699219 7.160156 L 11.710938 7.125 C 11.714844 7.105469 11.714844 7.089844 11.710938 7.078125 C 11.707031 7.070312 11.695312 7.0625 11.679688 7.054688 L 11.605469 7.03125 L 11.566406 7.164062 Z M 12.023438 7.144531 C 12.007812 7.179688 12.007812 7.210938 12.015625 7.238281 C 12.023438 7.265625 12.042969 7.28125 12.070312 7.292969 C 12.097656 7.304688 12.125 7.300781 12.148438 7.289062 C 12.171875 7.273438 12.1875 7.246094 12.203125 7.210938 C 12.214844 7.175781 12.21875 7.144531 12.207031 7.117188 C 12.199219 7.089844 12.179688 7.070312 12.152344 7.058594 C 12.125 7.050781 12.097656 7.050781 12.074219 7.066406 C 12.054688 7.082031 12.035156 7.105469 12.023438 7.144531 Z M 11.953125 7.117188 C 11.972656 7.0625 12.003906 7.027344 12.042969 7.003906 C 12.082031 6.984375 12.125 6.980469 12.175781 7 C 12.222656 7.019531 12.253906 7.050781 12.273438 7.089844 C 12.289062 7.132812 12.289062 7.183594 12.269531 7.238281 C 12.25 7.289062 12.222656 7.328125 12.179688 7.347656 C 12.140625 7.371094 12.097656 7.371094 12.050781 7.351562 C 12 7.335938 11.96875 7.304688 11.953125 7.261719 C 11.933594 7.21875 11.933594 7.171875 11.953125 7.117188 Z M 12.589844 7.535156 C 12.570312 7.546875 12.550781 7.550781 12.535156 7.554688 C 12.515625 7.554688 12.496094 7.550781 12.476562 7.542969 C 12.433594 7.523438 12.402344 7.492188 12.390625 7.445312 C 12.375 7.402344 12.378906 7.355469 12.398438 7.304688 C 12.421875 7.25 12.453125 7.214844 12.492188 7.195312 C 12.53125 7.175781 12.574219 7.175781 12.621094 7.199219 C 12.660156 7.214844 12.6875 7.238281 12.707031 7.269531 C 12.722656 7.300781 12.726562 7.335938 12.714844 7.371094 L 12.648438 7.339844 C 12.652344 7.324219 12.648438 7.304688 12.640625 7.292969 C 12.632812 7.277344 12.617188 7.265625 12.597656 7.257812 C 12.574219 7.246094 12.546875 7.246094 12.523438 7.257812 C 12.5 7.273438 12.480469 7.296875 12.46875 7.332031 C 12.453125 7.367188 12.449219 7.398438 12.457031 7.425781 C 12.464844 7.453125 12.480469 7.472656 12.507812 7.484375 C 12.53125 7.496094 12.550781 7.496094 12.566406 7.488281 C 12.585938 7.484375 12.601562 7.46875 12.613281 7.449219 L 12.542969 7.417969 L 12.566406 7.363281 L 12.699219 7.417969 L 12.625 7.597656 L 12.582031 7.578125 Z M 12.914062 7.527344 L 12.988281 7.5625 C 13.007812 7.570312 13.019531 7.574219 13.03125 7.570312 C 13.042969 7.570312 13.050781 7.558594 13.058594 7.546875 C 13.0625 7.53125 13.066406 7.519531 13.0625 7.507812 C 13.054688 7.496094 13.046875 7.488281 13.03125 7.480469 L 12.957031 7.441406 Z M 12.765625 7.671875 L 12.917969 7.355469 L 13.066406 7.429688 C 13.101562 7.445312 13.121094 7.464844 13.132812 7.488281 C 13.140625 7.511719 13.136719 7.539062 13.125 7.570312 C 13.113281 7.589844 13.101562 7.605469 13.089844 7.613281 C 13.074219 7.621094 13.058594 7.625 13.042969 7.621094 C 13.054688 7.632812 13.058594 7.648438 13.058594 7.660156 C 13.0625 7.671875 13.054688 7.691406 13.046875 7.710938 L 13.03125 7.75 C 13.019531 7.769531 13.019531 7.785156 13.027344 7.792969 L 13.019531 7.800781 L 12.953125 7.765625 C 12.953125 7.761719 12.953125 7.753906 12.953125 7.746094 C 12.957031 7.742188 12.960938 7.734375 12.964844 7.722656 L 12.976562 7.6875 C 12.988281 7.667969 12.988281 7.652344 12.988281 7.644531 C 12.984375 7.632812 12.972656 7.625 12.957031 7.617188 L 12.890625 7.582031 L 12.832031 7.707031 Z M 13.148438 7.878906 L 13.316406 7.566406 L 13.535156 7.691406 L 13.507812 7.746094 L 13.347656 7.65625 L 13.3125 7.722656 L 13.457031 7.804688 L 13.429688 7.859375 L 13.285156 7.773438 L 13.242188 7.855469 L 13.40625 7.949219 L 13.375 8.007812 Z M 13.539062 7.988281 L 13.597656 8.023438 C 13.589844 8.042969 13.589844 8.058594 13.59375 8.074219 C 13.601562 8.089844 13.613281 8.101562 13.636719 8.117188 C 13.652344 8.128906 13.667969 8.132812 13.679688 8.132812 C 13.695312 8.128906 13.703125 8.125 13.710938 8.109375 C 13.722656 8.09375 13.703125 8.0625 13.660156 8.015625 C 13.65625 8.015625 13.65625 8.011719 13.652344 8.011719 C 13.628906 7.988281 13.613281 7.96875 13.605469 7.953125 C 13.601562 7.9375 13.597656 7.925781 13.601562 7.910156 C 13.601562 7.894531 13.605469 7.878906 13.617188 7.863281 C 13.632812 7.832031 13.65625 7.816406 13.683594 7.8125 C 13.714844 7.808594 13.746094 7.820312 13.78125 7.84375 C 13.816406 7.863281 13.839844 7.890625 13.847656 7.917969 C 13.859375 7.945312 13.855469 7.976562 13.835938 8.007812 L 13.78125 7.972656 C 13.785156 7.957031 13.789062 7.941406 13.78125 7.929688 C 13.777344 7.914062 13.765625 7.902344 13.746094 7.890625 C 13.730469 7.878906 13.71875 7.875 13.703125 7.878906 C 13.691406 7.878906 13.683594 7.882812 13.675781 7.894531 C 13.667969 7.914062 13.675781 7.933594 13.707031 7.964844 C 13.714844 7.972656 13.71875 7.976562 13.722656 7.980469 C 13.742188 8 13.753906 8.015625 13.761719 8.023438 C 13.769531 8.03125 13.773438 8.042969 13.777344 8.050781 C 13.785156 8.0625 13.789062 8.078125 13.789062 8.09375 C 13.789062 8.109375 13.785156 8.125 13.773438 8.140625 C 13.757812 8.171875 13.730469 8.191406 13.699219 8.195312 C 13.671875 8.199219 13.636719 8.191406 13.597656 8.167969 C 13.5625 8.144531 13.539062 8.117188 13.527344 8.085938 C 13.515625 8.054688 13.519531 8.023438 13.539062 7.988281 Z M 13.898438 8.222656 L 13.957031 8.261719 C 13.949219 8.28125 13.945312 8.296875 13.953125 8.3125 C 13.957031 8.328125 13.96875 8.34375 13.992188 8.355469 C 14.007812 8.367188 14.023438 8.375 14.035156 8.375 C 14.046875 8.375 14.058594 8.367188 14.066406 8.355469 C 14.078125 8.335938 14.0625 8.304688 14.019531 8.257812 C 14.019531 8.253906 14.015625 8.253906 14.015625 8.25 C 13.992188 8.226562 13.976562 8.207031 13.96875 8.191406 C 13.964844 8.175781 13.964844 8.164062 13.964844 8.148438 C 13.96875 8.132812 13.972656 8.117188 13.984375 8.101562 C 14.003906 8.074219 14.027344 8.058594 14.054688 8.054688 C 14.082031 8.054688 14.117188 8.066406 14.152344 8.089844 C 14.183594 8.113281 14.203125 8.140625 14.210938 8.167969 C 14.222656 8.199219 14.214844 8.230469 14.199219 8.257812 L 14.140625 8.21875 C 14.148438 8.203125 14.152344 8.191406 14.148438 8.175781 C 14.140625 8.164062 14.132812 8.148438 14.113281 8.136719 C 14.097656 8.125 14.085938 8.121094 14.070312 8.121094 C 14.058594 8.121094 14.050781 8.128906 14.042969 8.136719 C 14.03125 8.15625 14.039062 8.175781 14.066406 8.207031 C 14.074219 8.214844 14.082031 8.222656 14.085938 8.226562 C 14.101562 8.246094 14.113281 8.261719 14.121094 8.269531 C 14.128906 8.28125 14.132812 8.289062 14.136719 8.296875 C 14.144531 8.3125 14.148438 8.328125 14.144531 8.339844 C 14.144531 8.355469 14.136719 8.371094 14.128906 8.386719 C 14.109375 8.417969 14.082031 8.433594 14.050781 8.4375 C 14.019531 8.441406 13.988281 8.429688 13.949219 8.402344 C 13.914062 8.378906 13.894531 8.351562 13.882812 8.320312 C 13.875 8.289062 13.878906 8.253906 13.898438 8.222656 Z M 14.335938 8.460938 C 14.3125 8.492188 14.300781 8.523438 14.300781 8.550781 C 14.300781 8.578125 14.316406 8.601562 14.339844 8.621094 C 14.363281 8.640625 14.386719 8.644531 14.414062 8.640625 C 14.441406 8.632812 14.464844 8.613281 14.488281 8.582031 C 14.511719 8.550781 14.523438 8.523438 14.519531 8.492188 C 14.519531 8.464844 14.507812 8.441406 14.484375 8.421875 C 14.460938 8.40625 14.433594 8.398438 14.40625 8.40625 C 14.382812 8.414062 14.359375 8.429688 14.335938 8.460938 Z M 14.277344 8.417969 C 14.3125 8.371094 14.347656 8.34375 14.394531 8.335938 C 14.4375 8.328125 14.480469 8.339844 14.519531 8.371094 C 14.5625 8.40625 14.582031 8.445312 14.589844 8.488281 C 14.59375 8.535156 14.578125 8.582031 14.546875 8.628906 C 14.511719 8.671875 14.472656 8.699219 14.429688 8.707031 C 14.386719 8.714844 14.34375 8.703125 14.300781 8.671875 C 14.261719 8.640625 14.238281 8.601562 14.234375 8.554688 C 14.230469 8.507812 14.246094 8.464844 14.277344 8.417969 Z M 14.277344 8.417969 "/>
</g>
</svg>
